<svg width="1738" height="532" viewBox="0 0 1738 532" fill="none" xmlns="http://www.w3.org/2000/svg">
<path opacity="0.1" fill-rule="evenodd" clip-rule="evenodd" d="M2.41054 2.40997H48.2108V48.1993H2.41054V2.40997ZM50.6214 48.1993V2.40997H96.4216V48.1993H50.6214ZM2.41054 50.6093H48.2108V96.3986H2.41054V50.6093ZM50.6214 50.6093V96.3986H96.4216V50.6093H50.6214ZM2.41054 98.8086H48.2108V144.598H2.41054V98.8086ZM50.6214 98.8086V144.598H96.4216V98.8086H50.6214ZM2.41054 147.008H48.2108V192.195H2.41054V147.008ZM50.6214 147.008V192.195H96.4216V147.008H50.6214ZM2.41054 194.605H48.2108V240.394H2.41054V194.605ZM50.6214 194.605V240.394H96.4216V194.605H50.6214ZM2.41054 242.804H48.2108V288.593H2.41054V242.804ZM50.6214 242.804V288.593H96.4216V242.804H50.6214ZM2.41054 291.003H48.2108V336.793H2.41054V291.003ZM50.6214 291.003V336.793H96.4216V291.003H50.6214ZM2.41054 339.203H48.2108V384.992H2.41054V339.203ZM50.6214 339.203V384.992H96.4216V339.203H50.6214ZM2.41054 387.402H48.2108V433.191H2.41054V387.402ZM50.6214 387.402V433.191H96.4216V387.402H50.6214ZM2.41054 435.601H48.2108V481.391H2.41054V435.601ZM50.6214 435.601V481.391H96.4216V435.601H50.6214ZM2.41054 483.801H48.2108V529.59H2.41054V483.801ZM50.6214 483.801V529.59H96.4216V483.801H50.6214ZM771.373 2.40997H725.573V48.1993H771.373V2.40997ZM677.362 2.40997H723.162V48.1993H677.362V2.40997ZM677.362 50.6093H723.162V96.3986H677.362V50.6093ZM677.362 98.8086H723.162V144.598H677.362V98.8086ZM725.573 98.8086V144.598H771.373V98.8086H725.573ZM677.362 147.008H723.162V192.195H677.362V147.008ZM725.573 147.008V192.195H771.373V147.008H725.573ZM677.362 194.605H723.162V240.394H677.362V194.605ZM725.573 194.605V240.394H771.373V194.605H725.573ZM677.362 242.804H723.162V288.593H677.362V242.804ZM725.573 242.804V288.593H771.373V242.804H725.573ZM677.362 291.003H723.162V336.793H677.362V291.003ZM725.573 291.003V336.793H771.373V291.003H725.573ZM677.362 339.203H723.162V384.992H677.362V339.203ZM725.573 339.203V384.992H771.373V339.203H725.573ZM677.362 387.402H723.162V433.191H677.362V387.402ZM725.573 387.402V433.191H771.373V387.402H725.573ZM677.362 435.601H723.162V481.391H677.362V435.601ZM725.573 435.601V481.391H771.373V435.601H725.573ZM677.362 483.801H723.162V529.59H677.362V483.801ZM725.573 483.801V529.59H771.373V483.801H725.573ZM725.573 50.6093V96.3986H771.373V50.6093H725.573ZM580.94 2.40997H626.741V48.1993H580.94V2.40997ZM629.151 48.1993V2.40997H674.951V48.1993H629.151ZM580.94 50.6093H626.741V96.3986H580.94V50.6093ZM629.151 50.6093V96.3986H674.951V50.6093H629.151ZM580.94 98.8086H626.741V144.598H580.94V98.8086ZM629.151 98.8086V144.598H674.951V98.8086H629.151ZM580.94 147.008H626.741V192.195H580.94V147.008ZM629.151 147.008V192.195H674.951V147.008H629.151ZM580.94 194.605H626.741V240.394H580.94V194.605ZM629.151 194.605V240.394H674.951V194.605H629.151ZM580.94 242.804H626.741V288.593H580.94V242.804ZM629.151 242.804V288.593H674.951V242.804H629.151ZM580.94 291.003H626.741V336.793H580.94V291.003ZM629.151 291.003V336.793H674.951V291.003H629.151ZM580.94 339.203H626.741V384.992H580.94V339.203ZM629.151 339.203V384.992H674.951V339.203H629.151ZM580.94 387.402H626.741V433.191H580.94V387.402ZM629.151 387.402V433.191H674.951V387.402H629.151ZM580.94 435.601H626.741V481.391H580.94V435.601ZM629.151 435.601V481.391H674.951V435.601H629.151ZM580.94 483.801H626.741V529.59H580.94V483.801ZM629.151 483.801V529.59H674.951V483.801H629.151ZM532.729 2.40997H578.53V48.1993H532.729V2.40997ZM532.729 50.6093H578.53V96.3986H532.729V50.6093ZM532.729 98.8086H578.53V144.598H532.729V98.8086ZM532.729 147.008H578.53V192.195H532.729V147.008ZM532.729 194.605H578.53V240.394H532.729V194.605ZM532.729 242.804H578.53V288.593H532.729V242.804ZM532.729 291.003H578.53V336.793H532.729V291.003ZM532.729 339.203H578.53V384.992H532.729V339.203ZM532.729 387.402H578.53V433.191H532.729V387.402ZM532.729 435.601H578.53V481.391H532.729V435.601ZM532.729 483.801H578.53V529.59H532.729V483.801ZM484.519 2.40997H530.319V48.1993H484.519V2.40997ZM484.519 50.6093H530.319V96.3986H484.519V50.6093ZM484.519 98.8086H530.319V144.598H484.519V98.8086ZM484.519 147.008H530.319V192.195H484.519V147.008ZM484.519 194.605H530.319V240.394H484.519V194.605ZM484.519 242.804H530.319V288.593H484.519V242.804ZM484.519 291.003H530.319V336.793H484.519V291.003ZM484.519 339.203H530.319V384.992H484.519V339.203ZM484.519 387.402H530.319V433.191H484.519V387.402ZM484.519 435.601H530.319V481.391H484.519V435.601ZM484.519 483.801H530.319V529.59H484.519V483.801ZM388.097 2.40997H433.897V48.1993H388.097V2.40997ZM436.308 48.1993V2.40997H482.108V48.1993H436.308ZM388.097 50.6093H433.897V96.3986H388.097V50.6093ZM436.308 50.6093V96.3986H482.108V50.6093H436.308ZM388.097 98.8086H433.897V144.598H388.097V98.8086ZM436.308 98.8086V144.598H482.108V98.8086H436.308ZM388.097 147.008H433.897V192.195H388.097V147.008ZM436.308 147.008V192.195H482.108V147.008H436.308ZM388.097 194.605H433.897V240.394H388.097V194.605ZM436.308 194.605V240.394H482.108V194.605H436.308ZM388.097 242.804H433.897V288.593H388.097V242.804ZM436.308 242.804V288.593H482.108V242.804H436.308ZM388.097 291.003H433.897V336.793H388.097V291.003ZM436.308 291.003V336.793H482.108V291.003H436.308ZM388.097 339.203H433.897V384.992H388.097V339.203ZM436.308 339.203V384.992H482.108V339.203H436.308ZM388.097 387.402H433.897V433.191H388.097V387.402ZM436.308 387.402V433.191H482.108V387.402H436.308ZM388.097 435.601H433.897V481.391H388.097V435.601ZM436.308 435.601V481.391H482.108V435.601H436.308ZM388.097 483.801H433.897V529.59H388.097V483.801ZM436.308 483.801V529.59H482.108V483.801H436.308ZM339.886 2.40997H385.687V48.1993H339.886V2.40997ZM339.886 50.6093H385.687V96.3986H339.886V50.6093ZM339.886 98.8086H385.687V144.598H339.886V98.8086ZM339.886 147.008H385.687V192.195H339.886V147.008ZM339.886 194.605H385.687V240.394H339.886V194.605ZM339.886 242.804H385.687V288.593H339.886V242.804ZM339.886 291.003H385.687V336.793H339.886V291.003ZM339.886 339.203H385.687V384.992H339.886V339.203ZM339.886 387.402H385.687V433.191H339.886V387.402ZM339.886 435.601H385.687V481.391H339.886V435.601ZM339.886 483.801H385.687V529.59H339.886V483.801ZM291.675 2.40997H337.476V48.1993H291.675V2.40997ZM291.675 50.6093H337.476V96.3986H291.675V50.6093ZM291.675 98.8086H337.476V144.598H291.675V98.8086ZM291.675 147.008H337.476V192.195H291.675V147.008ZM291.675 194.605H337.476V240.394H291.675V194.605ZM291.675 242.804H337.476V288.593H291.675V242.804ZM291.675 291.003H337.476V336.793H291.675V291.003ZM291.675 339.203H337.476V384.992H291.675V339.203ZM291.675 387.402H337.476V433.191H291.675V387.402ZM291.675 435.601H337.476V481.391H291.675V435.601ZM291.675 483.801H337.476V529.59H291.675V483.801ZM195.254 2.40997H241.054V48.1993H195.254V2.40997ZM243.465 48.1993V2.40997H289.265V48.1993H243.465ZM195.254 50.6093H241.054V96.3986H195.254V50.6093ZM243.465 50.6093V96.3986H289.265V50.6093H243.465ZM195.254 98.8086H241.054V144.598H195.254V98.8086ZM243.465 98.8086V144.598H289.265V98.8086H243.465ZM195.254 147.008H241.054V192.195H195.254V147.008ZM243.465 147.008V192.195H289.265V147.008H243.465ZM195.254 194.605H241.054V240.394H195.254V194.605ZM243.465 194.605V240.394H289.265V194.605H243.465ZM195.254 242.804H241.054V288.593H195.254V242.804ZM243.465 242.804V288.593H289.265V242.804H243.465ZM195.254 291.003H241.054V336.793H195.254V291.003ZM243.465 291.003V336.793H289.265V291.003H243.465ZM195.254 339.203H241.054V384.992H195.254V339.203ZM243.465 339.203V384.992H289.265V339.203H243.465ZM195.254 387.402H241.054V433.191H195.254V387.402ZM243.465 387.402V433.191H289.265V387.402H243.465ZM195.254 435.601H241.054V481.391H195.254V435.601ZM243.465 435.601V481.391H289.265V435.601H243.465ZM195.254 483.801H241.054V529.59H195.254V483.801ZM243.465 483.801V529.59H289.265V483.801H243.465ZM147.043 2.40997H192.843V48.1993H147.043V2.40997ZM147.043 50.6093H192.843V96.3986H147.043V50.6093ZM147.043 98.8086H192.843V144.598H147.043V98.8086ZM147.043 147.008H192.843V192.195H147.043V147.008ZM147.043 194.605H192.843V240.394H147.043V194.605ZM147.043 242.804H192.843V288.593H147.043V242.804ZM147.043 291.003H192.843V336.793H147.043V291.003ZM147.043 339.203H192.843V384.992H147.043V339.203ZM147.043 387.402H192.843V433.191H147.043V387.402ZM147.043 435.601H192.843V481.391H147.043V435.601ZM147.043 483.801H192.843V529.59H147.043V483.801ZM98.8322 2.40997H144.632V48.1993H98.8322V2.40997ZM98.8322 50.6093H144.632V96.3986H98.8322V50.6093ZM98.8322 98.8086H144.632V144.598H98.8322V98.8086ZM98.8322 147.008H144.632V192.195H98.8322V147.008ZM98.8322 194.605H144.632V240.394H98.8322V194.605ZM98.8322 242.804H144.632V288.593H98.8322V242.804ZM98.8322 291.003H144.632V336.793H98.8322V291.003ZM98.8322 339.203H144.632V384.992H98.8322V339.203ZM98.8322 387.402H144.632V433.191H98.8322V387.402ZM98.8322 435.601H144.632V481.391H98.8322V435.601ZM98.8322 483.801H144.632V529.59H98.8322V483.801ZM773.784 2.40997V48.1993H819.584V2.40997H773.784ZM773.784 96.3986V50.6093H819.584V96.3986H773.784ZM773.784 144.598V98.8086H819.584V144.598H773.784ZM773.784 192.195V147.008H819.584V192.195H773.784ZM773.784 240.394V194.605H819.584V240.394H773.784ZM773.784 288.593V242.804H819.584V288.593H773.784ZM773.784 336.793V291.003H819.584V336.793H773.784ZM773.784 384.992V339.203H819.584V384.992H773.784ZM773.784 433.191V387.402H819.584V433.191H773.784ZM773.784 481.391V435.601H819.584V481.391H773.784ZM773.784 529.59V483.801H819.584V529.59H773.784ZM1448.73 2.40997H1494.54V48.1993H1448.73V2.40997ZM1446.32 2.40997H1400.52V48.1993H1446.32V2.40997ZM1446.32 50.6093H1400.52V96.3986H1446.32V50.6093ZM1446.32 98.8086H1400.52V144.598H1446.32V98.8086ZM1448.73 144.598V98.8086H1494.54V144.598H1448.73ZM1446.32 147.008H1400.52V192.195H1446.32V147.008ZM1448.73 192.195V147.008H1494.54V192.195H1448.73ZM1446.32 194.605H1400.52V240.394H1446.32V194.605ZM1448.73 240.394V194.605H1494.54V240.394H1448.73ZM1446.32 242.804H1400.52V288.593H1446.32V242.804ZM1448.73 288.593V242.804H1494.54V288.593H1448.73ZM1446.32 291.003H1400.52V336.793H1446.32V291.003ZM1448.73 336.793V291.003H1494.54V336.793H1448.73ZM1446.32 339.203H1400.52V384.992H1446.32V339.203ZM1448.73 384.992V339.203H1494.54V384.992H1448.73ZM1446.32 387.402H1400.52V433.191H1446.32V387.402ZM1448.73 433.191V387.402H1494.54V433.191H1448.73ZM1446.32 435.601H1400.52V481.391H1446.32V435.601ZM1448.73 481.391V435.601H1494.54V481.391H1448.73ZM1446.32 483.801H1400.52V529.59H1446.32V483.801ZM1448.73 529.59V483.801H1494.54V529.59H1448.73ZM1448.73 96.3986V50.6093H1494.54V96.3986H1448.73ZM1349.9 2.40997H1304.1V48.1993H1349.9V2.40997ZM1352.31 2.40997V48.1993H1398.11V2.40997H1352.31ZM1349.9 50.6093H1304.1V96.3986H1349.9V50.6093ZM1352.31 96.3986V50.6093H1398.11V96.3986H1352.31ZM1349.9 98.8086H1304.1V144.598H1349.9V98.8086ZM1352.31 144.598V98.8086H1398.11V144.598H1352.31ZM1349.9 147.008H1304.1V192.195H1349.9V147.008ZM1352.31 192.195V147.008H1398.11V192.195H1352.31ZM1349.9 194.605H1304.1V240.394H1349.9V194.605ZM1352.31 240.394V194.605H1398.11V240.394H1352.31ZM1349.9 242.804H1304.1V288.593H1349.9V242.804ZM1352.31 288.593V242.804H1398.11V288.593H1352.31ZM1349.9 291.003H1304.1V336.793H1349.9V291.003ZM1352.31 336.793V291.003H1398.11V336.793H1352.31ZM1349.9 339.203H1304.1V384.992H1349.9V339.203ZM1352.31 384.992V339.203H1398.11V384.992H1352.31ZM1349.9 387.402H1304.1V433.191H1349.9V387.402ZM1352.31 433.191V387.402H1398.11V433.191H1352.31ZM1349.9 435.601H1304.1V481.391H1349.9V435.601ZM1352.31 481.391V435.601H1398.11V481.391H1352.31ZM1349.9 483.801H1304.1V529.59H1349.9V483.801ZM1352.31 529.59V483.801H1398.11V529.59H1352.31ZM1639.17 2.40997H1593.37V48.1993H1639.17V2.40997ZM1641.58 2.40997H1687.38V48.1993H1641.58V2.40997ZM1735.59 2.40997H1689.79V48.1993H1735.59V2.40997ZM1736.79 0.602491V0H1.20527V0.602491H0V530.193H1.20527V532H1736.79V530.193H1738V0.602491H1736.79ZM1735.59 529.59V483.801H1689.79V529.59H1735.59ZM1735.59 481.391V435.601H1689.79V481.391H1735.59ZM1735.59 433.191V387.402H1689.79V433.191H1735.59ZM1735.59 384.992V339.203H1689.79V384.992H1735.59ZM1735.59 336.793V291.003H1689.79V336.793H1735.59ZM1735.59 288.593V242.804H1689.79V288.593H1735.59ZM1735.59 240.394V194.605H1689.79V240.394H1735.59ZM1735.59 192.195V147.008H1689.79V192.195H1735.59ZM1735.59 144.598V98.8086H1689.79V144.598H1735.59ZM1735.59 96.3986V50.6093H1689.79V96.3986H1735.59ZM1641.58 50.6093H1687.38V96.3986H1641.58V50.6093ZM1641.58 98.8086H1687.38V144.598H1641.58V98.8086ZM1641.58 147.008H1687.38V192.195H1641.58V147.008ZM1641.58 194.605H1687.38V240.394H1641.58V194.605ZM1641.58 242.804H1687.38V288.593H1641.58V242.804ZM1641.58 291.003H1687.38V336.793H1641.58V291.003ZM1641.58 339.203H1687.38V384.992H1641.58V339.203ZM1641.58 387.402H1687.38V433.191H1641.58V387.402ZM1641.58 435.601H1687.38V481.391H1641.58V435.601ZM1641.58 483.801H1687.38V529.59H1641.58V483.801ZM1639.17 50.6093H1593.37V96.3986H1639.17V50.6093ZM1639.17 98.8086H1593.37V144.598H1639.17V98.8086ZM1639.17 147.008H1593.37V192.195H1639.17V147.008ZM1639.17 194.605H1593.37V240.394H1639.17V194.605ZM1639.17 242.804H1593.37V288.593H1639.17V242.804ZM1639.17 291.003H1593.37V336.793H1639.17V291.003ZM1639.17 339.203H1593.37V384.992H1639.17V339.203ZM1639.17 387.402H1593.37V433.191H1639.17V387.402ZM1639.17 435.601H1593.37V481.391H1639.17V435.601ZM1639.17 483.801H1593.37V529.59H1639.17V483.801ZM1545.16 2.40997H1590.96V48.1993H1545.16V2.40997ZM1542.75 2.40997H1496.95V48.1993H1542.75V2.40997ZM1542.75 50.6093H1496.95V96.3986H1542.75V50.6093ZM1542.75 98.8086H1496.95V144.598H1542.75V98.8086ZM1545.16 144.598V98.8086H1590.96V144.598H1545.16ZM1542.75 147.008H1496.95V192.195H1542.75V147.008ZM1545.16 192.195V147.008H1590.96V192.195H1545.16ZM1542.75 194.605H1496.95V240.394H1542.75V194.605ZM1545.16 240.394V194.605H1590.96V240.394H1545.16ZM1542.75 242.804H1496.95V288.593H1542.75V242.804ZM1545.16 288.593V242.804H1590.96V288.593H1545.16ZM1542.75 291.003H1496.95V336.793H1542.75V291.003ZM1545.16 336.793V291.003H1590.96V336.793H1545.16ZM1542.75 339.203H1496.95V384.992H1542.75V339.203ZM1545.16 384.992V339.203H1590.96V384.992H1545.16ZM1542.75 387.402H1496.95V433.191H1542.75V387.402ZM1545.16 433.191V387.402H1590.96V433.191H1545.16ZM1542.75 435.601H1496.95V481.391H1542.75V435.601ZM1545.16 481.391V435.601H1590.96V481.391H1545.16ZM1542.75 483.801H1496.95V529.59H1542.75V483.801ZM1545.16 529.59V483.801H1590.96V529.59H1545.16ZM1545.16 96.3986V50.6093H1590.96V96.3986H1545.16ZM1301.69 2.40997H1255.89V48.1993H1301.69V2.40997ZM1301.69 50.6093H1255.89V96.3986H1301.69V50.6093ZM1301.69 98.8086H1255.89V144.598H1301.69V98.8086ZM1301.69 147.008H1255.89V192.195H1301.69V147.008ZM1301.69 194.605H1255.89V240.394H1301.69V194.605ZM1301.69 242.804H1255.89V288.593H1301.69V242.804ZM1301.69 291.003H1255.89V336.793H1301.69V291.003ZM1301.69 339.203H1255.89V384.992H1301.69V339.203ZM1301.69 387.402H1255.89V433.191H1301.69V387.402ZM1301.69 435.601H1255.89V481.391H1301.69V435.601ZM1301.69 483.801H1255.89V529.59H1301.69V483.801ZM1253.48 2.40997H1207.68V48.1993H1253.48V2.40997ZM1253.48 50.6093H1207.68V96.3986H1253.48V50.6093ZM1253.48 98.8086H1207.68V144.598H1253.48V98.8086ZM1253.48 147.008H1207.68V192.195H1253.48V147.008ZM1253.48 194.605H1207.68V240.394H1253.48V194.605ZM1253.48 242.804H1207.68V288.593H1253.48V242.804ZM1253.48 291.003H1207.68V336.793H1253.48V291.003ZM1253.48 339.203H1207.68V384.992H1253.48V339.203ZM1253.48 387.402H1207.68V433.191H1253.48V387.402ZM1253.48 435.601H1207.68V481.391H1253.48V435.601ZM1253.48 483.801H1207.68V529.59H1253.48V483.801ZM1157.06 2.40997H1111.26V48.1993H1157.06V2.40997ZM1159.47 2.40997V48.1993H1205.27V2.40997H1159.47ZM1157.06 50.6093H1111.26V96.3986H1157.06V50.6093ZM1159.47 96.3986V50.6093H1205.27V96.3986H1159.47ZM1157.06 98.8086H1111.26V144.598H1157.06V98.8086ZM1159.47 144.598V98.8086H1205.27V144.598H1159.47ZM1157.06 147.008H1111.26V192.195H1157.06V147.008ZM1159.47 192.195V147.008H1205.27V192.195H1159.47ZM1157.06 194.605H1111.26V240.394H1157.06V194.605ZM1159.47 240.394V194.605H1205.27V240.394H1159.47ZM1157.06 242.804H1111.26V288.593H1157.06V242.804ZM1159.47 288.593V242.804H1205.27V288.593H1159.47ZM1157.06 291.003H1111.26V336.793H1157.06V291.003ZM1159.47 336.793V291.003H1205.27V336.793H1159.47ZM1157.06 339.203H1111.26V384.992H1157.06V339.203ZM1159.47 384.992V339.203H1205.27V384.992H1159.47ZM1157.06 387.402H1111.26V433.191H1157.06V387.402ZM1159.47 433.191V387.402H1205.27V433.191H1159.47ZM1157.06 435.601H1111.26V481.391H1157.06V435.601ZM1159.47 481.391V435.601H1205.27V481.391H1159.47ZM1157.06 483.801H1111.26V529.59H1157.06V483.801ZM1159.47 529.59V483.801H1205.27V529.59H1159.47ZM1108.85 2.40997H1063.05V48.1993H1108.85V2.40997ZM1108.85 50.6093H1063.05V96.3986H1108.85V50.6093ZM1108.85 98.8086H1063.05V144.598H1108.85V98.8086ZM1108.85 147.008H1063.05V192.195H1108.85V147.008ZM1108.85 194.605H1063.05V240.394H1108.85V194.605ZM1108.85 242.804H1063.05V288.593H1108.85V242.804ZM1108.85 291.003H1063.05V336.793H1108.85V291.003ZM1108.85 339.203H1063.05V384.992H1108.85V339.203ZM1108.85 387.402H1063.05V433.191H1108.85V387.402ZM1108.85 435.601H1063.05V481.391H1108.85V435.601ZM1108.85 483.801H1063.05V529.59H1108.85V483.801ZM1060.64 2.40997H1014.84V48.1993H1060.64V2.40997ZM1060.64 50.6093H1014.84V96.3986H1060.64V50.6093ZM1060.64 98.8086H1014.84V144.598H1060.64V98.8086ZM1060.64 147.008H1014.84V192.195H1060.64V147.008ZM1060.64 194.605H1014.84V240.394H1060.64V194.605ZM1060.64 242.804H1014.84V288.593H1060.64V242.804ZM1060.64 291.003H1014.84V336.793H1060.64V291.003ZM1060.64 339.203H1014.84V384.992H1060.64V339.203ZM1060.64 387.402H1014.84V433.191H1060.64V387.402ZM1060.64 435.601H1014.84V481.391H1060.64V435.601ZM1060.64 483.801H1014.84V529.59H1060.64V483.801ZM964.216 2.40997H918.416V48.1993H964.216V2.40997ZM966.627 2.40997V48.1993H1012.43V2.40997H966.627ZM964.216 50.6093H918.416V96.3986H964.216V50.6093ZM966.627 96.3986V50.6093H1012.43V96.3986H966.627ZM964.216 98.8086H918.416V144.598H964.216V98.8086ZM966.627 144.598V98.8086H1012.43V144.598H966.627ZM964.216 147.008H918.416V192.195H964.216V147.008ZM966.627 192.195V147.008H1012.43V192.195H966.627ZM964.216 194.605H918.416V240.394H964.216V194.605ZM966.627 240.394V194.605H1012.43V240.394H966.627ZM964.216 242.804H918.416V288.593H964.216V242.804ZM966.627 288.593V242.804H1012.43V288.593H966.627ZM964.216 291.003H918.416V336.793H964.216V291.003ZM966.627 336.793V291.003H1012.43V336.793H966.627ZM964.216 339.203H918.416V384.992H964.216V339.203ZM966.627 384.992V339.203H1012.43V384.992H966.627ZM964.216 387.402H918.416V433.191H964.216V387.402ZM966.627 433.191V387.402H1012.43V433.191H966.627ZM964.216 435.601H918.416V481.391H964.216V435.601ZM966.627 481.391V435.601H1012.43V481.391H966.627ZM964.216 483.801H918.416V529.59H964.216V483.801ZM966.627 529.59V483.801H1012.43V529.59H966.627ZM916.005 2.40997H870.205V48.1993H916.005V2.40997ZM916.005 50.6093H870.205V96.3986H916.005V50.6093ZM916.005 98.8086H870.205V144.598H916.005V98.8086ZM916.005 147.008H870.205V192.195H916.005V147.008ZM916.005 194.605H870.205V240.394H916.005V194.605ZM916.005 242.804H870.205V288.593H916.005V242.804ZM916.005 291.003H870.205V336.793H916.005V291.003ZM916.005 339.203H870.205V384.992H916.005V339.203ZM916.005 387.402H870.205V433.191H916.005V387.402ZM916.005 435.601H870.205V481.391H916.005V435.601ZM916.005 483.801H870.205V529.59H916.005V483.801ZM867.795 2.40997H821.994V48.1993H867.795V2.40997ZM867.795 50.6093H821.994V96.3986H867.795V50.6093ZM867.795 98.8086H821.994V144.598H867.795V98.8086ZM867.795 147.008H821.994V192.195H867.795V147.008ZM867.795 194.605H821.994V240.394H867.795V194.605ZM867.795 242.804H821.994V288.593H867.795V242.804ZM867.795 291.003H821.994V336.793H867.795V291.003ZM867.795 339.203H821.994V384.992H867.795V339.203ZM867.795 387.402H821.994V433.191H867.795V387.402ZM867.795 435.601H821.994V481.391H867.795V435.601ZM867.795 483.801H821.994V529.59H867.795V483.801Z" fill="url(#paint0_radial_192_6985)"/>
<defs>
<radialGradient id="paint0_radial_192_6985" cx="0" cy="0" r="1" gradientUnits="userSpaceOnUse" gradientTransform="translate(869 -0.602468) rotate(90) scale(532.602 853.959)">
<stop/>
<stop offset="1" stop-color="#41DCFF" stop-opacity="0.3"/>
</radialGradient>
</defs>
</svg>
