<svg width="474" height="66" viewBox="0 0 474 66" fill="none" xmlns="http://www.w3.org/2000/svg">
<path fill-rule="evenodd" clip-rule="evenodd" d="M26.4108 0.317336C-0.0892925 1.56734 -3.08942 3.31709 4.41058 12.5671C12.6605 22.8171 29.9108 25.3178 163.911 29.5678C9.1607 32.5676 -5.08954 36.0676 1.16046 47.8176C9.16046 62.5676 60.4105 61.0676 309.91 61.5676C384.66 61.8176 426.16 66.0676 447.41 65.0676C476.91 63.5676 469.66 52.0676 457.41 46.8176L464.16 45.5676C481.91 42.3176 471.16 21.8178 448.41 15.8178C428.41 10.5678 313.41 5.06734 202.661 4.06734C56.1608 3.06734 56.6608 -1.18266 26.4108 0.317336Z" fill="#22D3EE"/>
</svg>
