<?xml version="1.0" standalone="no"?>
<!DOCTYPE svg PUBLIC "-//W3C//DTD SVG 20010904//EN"
 "http://www.w3.org/TR/2001/REC-SVG-20010904/DTD/svg10.dtd">
<svg version="1.0" xmlns="http://www.w3.org/2000/svg"
 width="260.000000pt" height="260.000000pt" viewBox="0 0 260.000000 260.000000"
 preserveAspectRatio="xMidYMid meet">
<metadata>
Created by potrace 1.14, written by Peter Selinger 2001-2017
</metadata>
<g transform="translate(0.000000,260.000000) scale(0.100000,-0.100000)"
fill="#000000" stroke="none">
<path d="M850 2275 c-138 -37 -160 -60 -219 -234 -50 -144 -36 -197 83 -317
101 -101 245 -188 451 -272 109 -44 316 -107 386 -117 24 -3 51 -8 60 -11 65
-19 293 -27 369 -13 103 20 162 56 195 119 30 58 75 202 75 240 0 260 -733
621 -1255 617 -55 0 -120 -6 -145 -12z m320 -165 c139 -22 203 -38 349 -87
254 -85 504 -236 549 -330 14 -30 14 -35 2 -43 -53 -33 -228 -36 -396 -5 -286
52 -625 200 -785 342 -28 25 -69 82 -69 96 0 12 40 28 82 33 24 4 44 7 46 9 6
5 158 -5 222 -15z"/>
<path d="M517 1587 c-8 -7 -20 -34 -26 -62 -6 -27 -14 -59 -17 -70 -3 -11 -8
-45 -11 -76 -5 -47 -1 -65 17 -103 23 -46 119 -146 139 -146 6 0 11 -4 11 -8
0 -12 159 -94 253 -131 82 -33 261 -88 312 -97 16 -2 62 -11 102 -19 112 -23
196 -30 358 -29 160 0 237 14 323 57 84 41 105 79 138 241 16 75 16 80 -1 92
-15 11 -25 9 -64 -10 -119 -60 -390 -79 -606 -41 -16 3 -46 8 -65 11 -68 12
-82 15 -196 44 -278 72 -509 193 -604 316 -30 40 -43 46 -63 31z"/>
<path d="M375 900 c-10 -17 -15 -51 -20 -149 -5 -107 8 -143 72 -206 101 -98
392 -194 678 -223 93 -9 373 -9 460 1 224 25 402 110 434 210 6 18 12 80 14
137 l2 105 -27 3 c-16 2 -28 -1 -28 -5 0 -13 -70 -50 -137 -74 -122 -42 -266
-62 -448 -62 -389 0 -764 94 -915 230 -47 42 -73 52 -85 33z"/>
</g>
</svg>
